<?xml version="1.0" encoding="UTF-8" standalone="no"?>
<!-- Created with Inkscape (http://www.inkscape.org/) -->

<svg
   width="2.5219069"
   height="2.4998178"
   viewBox="0 0 2.5219069 2.4998178"
   version="1.1"
   id="svg1"
   xml:space="preserve"
   sodipodi:docname="cloud.svg"
   inkscape:version="1.3.2 (091e20e, 2023-11-25, custom)"
   xmlns:inkscape="http://www.inkscape.org/namespaces/inkscape"
   xmlns:sodipodi="http://sodipodi.sourceforge.net/DTD/sodipodi-0.dtd"
   xmlns="http://www.w3.org/2000/svg"
   xmlns:svg="http://www.w3.org/2000/svg"><sodipodi:namedview
     id="namedview1"
     pagecolor="#ffffff"
     bordercolor="#000000"
     borderopacity="0.25"
     inkscape:showpageshadow="2"
     inkscape:pageopacity="0.0"
     inkscape:pagecheckerboard="0"
     inkscape:deskcolor="#d1d1d1"
     inkscape:zoom="181.01934"
     inkscape:cx="1.09933"
     inkscape:cy="1.4998397"
     inkscape:window-width="1920"
     inkscape:window-height="1009"
     inkscape:window-x="-8"
     inkscape:window-y="-8"
     inkscape:window-maximized="1"
     inkscape:current-layer="svg1" /><defs
     id="defs1" /><path
     style="display:inline;opacity:1;fill:#f2f2f2;fill-opacity:1;stroke:#f2f2f2;stroke-width:0.0686979;stroke-dasharray:none;stroke-opacity:1"
     d="M 0.57609667,2.0367599 C 0.50085563,2.0257761 0.41356178,1.9923825 0.34980318,1.9502147 0.30982213,1.9237661 0.24846683,1.8652955 0.21621454,1.8229246 0.18083585,1.7764147 0.14181016,1.694632 0.12512696,1.6319215 0.11297031,1.5861697 0.11126838,1.5698226 0.11126838,1.4987033 c 0,-0.070606 0.002002,-0.087595 0.0135153,-0.1318066 0.0248768,-0.093473 0.0678756,-0.1713495 0.13190247,-0.2388446 0.0463025,-0.048842 0.0851723,-0.078769 0.14055655,-0.1082241 l 0.0437596,-0.023275 0.003432,-0.0430746 C 0.45514694,0.82695207 0.49623353,0.71761207 0.57012018,0.61942129 0.66220175,0.49701533 0.7944666,0.41404037 0.94937828,0.38149275 1.0092147,0.36893565 1.129252,0.36873542 1.1876248,0.38099218 1.3322329,0.41163264 1.4596599,0.48605275 1.5467887,0.59075549 l 0.026244,0.0314643 0.08169,7.5085e-4 c 0.070213,7.5085e-4 0.089015,0.002746 0.1338561,0.0146152 0.062652,0.0166174 0.1444555,0.0556445 0.1909931,0.0910504 0.042385,0.0322895 0.1008358,0.0936162 0.1272901,0.1335915 0.0496,0.0749436 0.083442,0.17438276 0.090297,0.26525556 l 0.00343,0.047471 0.018946,0.00968 c 0.035931,0.018345 0.095463,0.069542 0.1271614,0.1093626 0.037783,0.047468 0.073101,0.1182198 0.087636,0.1755415 C 2.49314,1.7013551 2.364291,1.938608 2.1371673,2.0168847 2.0623724,2.0426453 2.068538,2.0425066 1.3132607,2.0418115 0.92465239,2.0415612 0.59277273,2.0390655 0.57576186,2.037006 Z M 2.0572232,1.8672626 C 2.2437765,1.8232956 2.3373297,1.6155117 2.2476307,1.4443851 2.2088867,1.3704383 2.1281724,1.310446 2.0468119,1.2950917 l -0.034071,-0.00618 0.00961,-0.040118 c 0.019971,-0.083365 0.00968,-0.1675077 -0.03064,-0.25187356 -0.020322,-0.042594 -0.03057,-0.0564712 -0.07146,-0.0973676 -0.040874,-0.0408735 -0.054819,-0.0511108 -0.097368,-0.0714568 -0.027342,-0.0130434 -0.066634,-0.0274797 -0.087313,-0.0320821 -0.067735,-0.0148912 -0.148675,-0.008781 -0.2147912,0.0161426 -0.012285,0.004805 -0.023075,0.00748 -0.023976,0.006178 -7.507e-4,-0.001251 -0.01044,-0.0183451 -0.021248,-0.0383363 C 1.4157888,0.66956877 1.3194821,0.59121906 1.1979213,0.5540891 1.1552572,0.54104573 1.1433079,0.53974855 1.069806,0.53974855 c -0.0735119,0 -0.085424,0.001251 -0.12811243,0.0143406 -0.15344516,0.0468503 -0.26908974,0.1626752 -0.31399295,0.31444345 -0.0182693,0.0616914 -0.0230004,0.1541584 -0.0107837,0.2114326 0.004805,0.021348 0.00768,0.039224 0.007008,0.039568 -7.5085e-4,5.005e-4 -0.0212226,0.0048 -0.0456847,0.00981 -0.0269291,0.00551 -0.0640269,0.018545 -0.0941239,0.032976 -0.0424524,0.020397 -0.0566085,0.030775 -0.0973647,0.07156 -0.0408735,0.040876 -0.0511122,0.054821 -0.0714668,0.097367 -0.0544088,0.1136618 -0.0544088,0.2210004 0,0.3346701 0.0203974,0.042591 0.0305732,0.056468 0.0714668,0.097282 0.038814,0.038747 0.0561251,0.051729 0.0930727,0.069952 0.0893456,0.044037 0.031121,0.04115 0.83312658,0.041494 0.612742,2.503e-4 0.7157478,-7.508e-4 0.744246,-0.00748 z"
     id="path181" /></svg>
