<?xml version="1.0" encoding="UTF-8" standalone="no"?>
<!-- Created with Inkscape (http://www.inkscape.org/) -->

<svg
   width="2.5219069"
   height="2.4998178"
   viewBox="0 0 2.5219069 2.4998178"
   version="1.1"
   id="svg1"
   xml:space="preserve"
   sodipodi:docname="list.svg"
   inkscape:version="1.3.2 (091e20e, 2023-11-25, custom)"
   xmlns:inkscape="http://www.inkscape.org/namespaces/inkscape"
   xmlns:sodipodi="http://sodipodi.sourceforge.net/DTD/sodipodi-0.dtd"
   xmlns="http://www.w3.org/2000/svg"
   xmlns:svg="http://www.w3.org/2000/svg"><sodipodi:namedview
     id="namedview1"
     pagecolor="#ffffff"
     bordercolor="#000000"
     borderopacity="0.25"
     inkscape:showpageshadow="2"
     inkscape:pageopacity="0.0"
     inkscape:pagecheckerboard="0"
     inkscape:deskcolor="#d1d1d1"
     inkscape:zoom="256"
     inkscape:cx="0.5703125"
     inkscape:cy="1.4199219"
     inkscape:window-width="1920"
     inkscape:window-height="1009"
     inkscape:window-x="-8"
     inkscape:window-y="-8"
     inkscape:window-maximized="1"
     inkscape:current-layer="svg1" /><defs
     id="defs1" /><path
     style="display:inline;opacity:1;fill:#f3f3f3;stroke-width:0.0419107;fill-opacity:1"
     d="M 0.53146052,2.4503284 C 0.44834712,2.4109974 0.36958383,2.3263221 0.33824879,2.2425762 0.31593949,2.1829472 0.31545489,2.1627212 0.31545489,1.2461008 V 0.3104927 l 0.0245019,-0.0647351 c 0.033591,-0.088682 0.12451472,-0.18006319 0.21162002,-0.21265517 0.061796,-0.02307456 0.0799919,-0.02399215 0.51322459,-0.02399215 0.4188547,0 0.4518954,0.00127129 0.4902879,0.02098384 0.080617,0.04115331 0.5363854,0.48968107 0.6232873,0.61342786 l 0.038841,0.0552885 0.00281,0.74309502 0.00281,0.7430948 -0.035271,0.076573 C 2.1466927,2.3501763 2.0829068,2.4149494 1.9970831,2.4549099 l -0.0576,0.026804 -0.6708763,8.42e-5 -0.67087638,8.41e-5 z M 1.9356641,2.2692403 c 0.029744,-0.016726 0.05186,-0.041573 0.07091,-0.07985 l 0.027714,-0.055569 V 1.4817612 c 0,-0.63448531 -5.099e-4,-0.6526591 -0.021901,-0.67397159 -0.030376,-0.0303738 -0.045282,-0.0322631 -0.280101,-0.0359725 l -0.2077343,-0.003499 -0.030724,-0.030657 -0.030726,-0.0306545 -0.00559,-0.2248578 C 1.4526169,0.29172899 1.4489667,0.2526966 1.4323229,0.22732768 L 1.4126645,0.19737178 H 1.0338569 c -0.35533549,0 -0.38160953,0.001271 -0.42390298,0.0220537 -0.024833,0.0121087 -0.0575278,0.0404547 -0.0727971,0.0629176 l -0.0277141,0.0409419 -0.002807,0.91077702 -0.002807,0.9107848 0.0259658,0.049058 c 0.0421326,0.079722 0.0756984,0.09258 0.26273004,0.1007415 0.088434,0.0035 0.37213774,0.0049 0.63046714,0.00281 0.4588305,-0.0042 0.470671,-0.0049 0.5128956,-0.028418 z M 0.72491694,1.8839999 c -0.0402407,-0.040243 -0.0412918,-0.077279 -0.003499,-0.1219847 l 0.0286934,-0.034155 H 1.264139 1.7781717 l 0.027714,0.024935 c 0.042202,0.038003 0.0429,0.09516 0.00127,0.136347 l -0.027224,0.027226 H 1.2685 0.75705516 Z m 0.002807,-0.3781855 c -0.0324746,-0.030304 -0.0406612,-0.069078 -0.0224628,-0.1069961 0.027013,-0.056268 0.0611,-0.060189 0.49459446,-0.056688 l 0.3925398,0.00281 0.026735,0.031147 c 0.032825,0.038142 0.034224,0.083907 0.0035,0.1226355 L 1.59958,1.5279048 H 1.175552 c -0.4106244,0 -0.42478771,-7.65e-4 -0.44815768,-0.022463 z m 0.0239405,-0.365534 c -0.0305147,-0.01231 -0.0594171,-0.053609 -0.0594171,-0.084881 0,-0.013437 0.0129269,-0.039749 0.0286934,-0.0585071 L 0.74963414,0.9628066 H 1.2627873 c 0.5023504,0 0.5137728,5.099e-4 0.5423695,0.0230494 0.021621,0.0170063 0.029186,0.0330359 0.029186,0.0617294 0,0.05263 -0.01517,0.077014 -0.056829,0.091551 -0.042557,0.014839 -0.98940801,0.015935 -1.02589077,0.00127 z"
     id="path182" /></svg>
