<?xml version="1.0" encoding="UTF-8" standalone="no"?>
<!-- Created with Inkscape (http://www.inkscape.org/) -->

<svg
   width="3.4330001"
   height="3.4330001"
   viewBox="0 0 3.4330001 3.4330001"
   version="1.1"
   id="svg1"
   xml:space="preserve"
   sodipodi:docname="pin.svg"
   inkscape:version="1.3.2 (091e20e, 2023-11-25, custom)"
   xmlns:inkscape="http://www.inkscape.org/namespaces/inkscape"
   xmlns:sodipodi="http://sodipodi.sourceforge.net/DTD/sodipodi-0.dtd"
   xmlns="http://www.w3.org/2000/svg"
   xmlns:svg="http://www.w3.org/2000/svg"><sodipodi:namedview
     id="namedview1"
     pagecolor="#ffffff"
     bordercolor="#000000"
     borderopacity="0.25"
     inkscape:showpageshadow="2"
     inkscape:pageopacity="0.0"
     inkscape:pagecheckerboard="0"
     inkscape:deskcolor="#d1d1d1"
     inkscape:zoom="84.144994"
     inkscape:cx="-0.53479117"
     inkscape:cy="2.2282966"
     inkscape:window-width="1920"
     inkscape:window-height="1009"
     inkscape:window-x="-8"
     inkscape:window-y="-8"
     inkscape:window-maximized="1"
     inkscape:current-layer="svg1" /><defs
     id="defs1" /><g
     id="g1886"
     style="display:inline;fill:#f2f2f2"
     transform="translate(-126.25575,-43.675954)"><path
       style="display:inline;opacity:1;fill:#f2f2f2;stroke-width:0.0487914"
       d="m 127.91282,47.091828 c -0.0627,-0.03475 -0.065,-0.05165 -0.0655,-0.475769 l -4.4e-4,-0.396964 h -0.43331 c -0.2725,0 -0.44253,-0.005 -0.45815,-0.01329 -0.0342,-0.01832 -0.0638,-0.07993 -0.0638,-0.132834 0,-0.07832 0.0375,-0.262317 0.0731,-0.358267 0.0496,-0.133739 0.16324,-0.299193 0.28096,-0.408945 0.0552,-0.05147 0.10559,-0.09359 0.11197,-0.09359 0.007,0 0.0116,-0.201604 0.0116,-0.472474 v -0.472472 l -0.0449,-0.07295 c -0.0627,-0.101974 -0.0971,-0.210063 -0.10608,-0.333499 -0.008,-0.104946 -0.007,-0.105898 0.0319,-0.14523 l 0.0396,-0.03959 h 0.68345 c 0.66873,0 0.68417,5.68e-4 0.71699,0.02637 0.0442,0.03472 0.0548,0.0978 0.0365,0.215686 -0.0159,0.101962 -0.0501,0.193546 -0.10783,0.288648 l -0.0362,0.05952 v 0.471236 0.471236 l 0.0532,0.03683 c 0.0808,0.05598 0.20747,0.20169 0.26924,0.309661 0.0735,0.12845 0.12444,0.282428 0.14166,0.428183 0.0156,0.131799 0.002,0.194693 -0.049,0.221816 -0.0172,0.0092 -0.17367,0.01395 -0.45937,0.01395 h -0.43332 v 0.388558 c 0,0.324017 -0.003,0.395554 -0.02,0.430675 -0.0314,0.06615 -0.10703,0.08964 -0.17223,0.0535 z m 0.87642,-1.135032 c 0,-0.03899 -0.0444,-0.163257 -0.0882,-0.247217 -0.0554,-0.10603 -0.17165,-0.234796 -0.27574,-0.305482 -0.0409,-0.02776 -0.0803,-0.06159 -0.0875,-0.07517 -0.008,-0.01576 -0.0132,-0.227472 -0.0132,-0.585169 v -0.560469 l 0.0376,-0.05197 c 0.0407,-0.05616 0.0828,-0.13458 0.0971,-0.181044 l 0.009,-0.02905 h -0.49143 c -0.27344,0 -0.49142,0.005 -0.49142,0.01133 0,0.02681 0.045,0.116188 0.0885,0.175853 l 0.0471,0.06455 0.004,0.556464 c 0.002,0.340628 -0.001,0.56934 -0.009,0.589663 -0.007,0.01826 -0.0478,0.05706 -0.0907,0.08622 -0.0981,0.06659 -0.19556,0.166694 -0.25209,0.258806 -0.042,0.06847 -0.1101,0.247405 -0.1101,0.289386 0,0.01827 0.082,0.02031 0.81329,0.02031 0.66456,0 0.81329,-0.0031 0.81329,-0.01702 z"
       id="path1834" /></g></svg>
