<?xml version="1.0" encoding="UTF-8" standalone="no"?>
<!-- Created with Inkscape (http://www.inkscape.org/) -->

<svg
   width="3.4330001"
   height="3.4330001"
   viewBox="0 0 3.4330001 3.4330001"
   version="1.1"
   id="svg1"
   xml:space="preserve"
   sodipodi:docname="unpin.svg"
   inkscape:version="1.3.2 (091e20e, 2023-11-25, custom)"
   xmlns:inkscape="http://www.inkscape.org/namespaces/inkscape"
   xmlns:sodipodi="http://sodipodi.sourceforge.net/DTD/sodipodi-0.dtd"
   xmlns="http://www.w3.org/2000/svg"
   xmlns:svg="http://www.w3.org/2000/svg"><sodipodi:namedview
     id="namedview1"
     pagecolor="#ffffff"
     bordercolor="#000000"
     borderopacity="0.25"
     inkscape:showpageshadow="2"
     inkscape:pageopacity="0.0"
     inkscape:pagecheckerboard="0"
     inkscape:deskcolor="#d1d1d1"
     inkscape:zoom="128"
     inkscape:cx="0.78125"
     inkscape:cy="1.9492188"
     inkscape:window-width="1920"
     inkscape:window-height="1009"
     inkscape:window-x="-8"
     inkscape:window-y="-8"
     inkscape:window-maximized="1"
     inkscape:current-layer="svg1" /><defs
     id="defs1" /><path
     style="display:inline;opacity:1;fill:#f2f2f2;stroke:#ffffff;stroke-width:0.0877824;stroke-dasharray:none;stroke-opacity:1"
     d="M 1.6600043,3.3308088 C 1.6004528,3.2978202 1.5982757,3.2817735 1.5978193,2.8790401 L 1.597412,2.5021006 H 1.1859564 c -0.25875625,0 -0.42021271,-0.00474 -0.43503916,-0.012641 -0.0324619,-0.017381 -0.0605874,-0.075897 -0.0605874,-0.1261257 0,-0.074369 0.0356748,-0.2490844 0.0694534,-0.3401938 C 0.80686974,1.896154 0.91478945,1.7390393 1.0265612,1.634824 1.0789322,1.585946 1.1268267,1.545953 1.1328832,1.545953 c 0.00667,0 0.011055,-0.1914342 0.011055,-0.4486402 V 0.64867456 L 1.1012815,0.57939667 C 1.0417298,0.48257265 1.0090748,0.37993041 1.00056,0.26271979 0.993011,0.16306919 0.993888,0.16215624 1.030862,0.12481359 l 0.037554,-0.037606 h 0.6489685 c 0.6350023,0 0.6496585,5.3898e-4 0.6808212,0.0250531 0.041907,0.0329711 0.052091,0.0928738 0.034639,0.20480518 -0.015099,0.096824 -0.04756,0.18378306 -0.1023898,0.27408836 l -0.034359,0.0565143 V 1.0951326 1.5425982 l 0.050493,0.034973 c 0.076723,0.053144 0.1970001,0.191515 0.2556634,0.2940397 0.069735,0.1219649 0.1181557,0.2681806 0.1345001,0.4065836 0.014747,0.1251426 0.00193,0.1848716 -0.046525,0.2106269 -0.016327,0.00877 -0.164908,0.013167 -0.4361926,0.013167 H 1.8425795 v 0.3689583 c 0,0.3076721 -0.00281,0.3756 -0.018961,0.4089503 C 1.7937905,3.342714 1.7220014,3.365011 1.6600799,3.330705 Z M 2.4922116,2.2530337 c 0,-0.037027 -0.042083,-0.1550237 -0.083797,-0.234746 C 2.3558504,1.9176012 2.2454377,1.7953343 2.1465807,1.7282141 2.1077983,1.7018619 2.0703328,1.6697335 2.0634331,1.6568295 2.0558839,1.6419064 2.0509681,1.4408338 2.0509681,1.1011807 V 0.56898391 l 0.035762,-0.0493512 c 0.038607,-0.0533366 0.078618,-0.12779368 0.092207,-0.17191314 l 0.00843,-0.0275812 H 1.720727 c -0.2596341,0 -0.4666269,0.004741 -0.4666269,0.0107091 0,0.0254569 0.04275,0.11032495 0.083991,0.16697974 l 0.044734,0.0612897 0.00386,0.52839229 c 0.00193,0.323445 -9.429e-4,0.5406205 -0.00843,0.5599185 -0.00667,0.017381 -0.0454,0.054179 -0.086167,0.081865 C 1.1989331,1.7925307 1.106386,1.887582 1.0527158,1.9750431 1.0128978,2.0400551 0.94816695,2.2099683 0.94816695,2.249832 c 0,0.017381 0.0779509,0.019294 0.77226955,0.019294 0.6310292,0 0.7722606,-0.00298 0.7722606,-0.016152 z"
     id="path173" /><path
     style="display:inline;fill:#000000;fill-opacity:1;stroke:#1e2228;stroke-width:0.653953;stroke-dasharray:none;stroke-opacity:1"
     d="M 0.77719971,2.5470052 2.4839254,1.0656824"
     id="path176"
     sodipodi:nodetypes="cc" /><path
     style="opacity:1;fill:none;fill-opacity:1;stroke:#fafafa;stroke-width:0.369233;stroke-dasharray:none;stroke-opacity:1"
     d="M 0.21402454,3.0290067 3.2189755,0.40399343"
     id="path178" /></svg>
